<svg width="2000" height="1400" xmlns="http://www.w3.org/2000/svg"><path fill="none" d="M0 0h2000v1400H0z"/><path d="M0 155h0c114.96-7.876 229.921-15.751 346-17 116.079-1.249 233.275 4.13 345 12s217.979 18.233 326 18c108.021-.233 217.81-11.063 320-12 102.19-.937 196.782 8.017 320 13 123.218 4.983 275.062 5.995 337 3 61.938-2.995 33.969-9.998 46-17" fill="none" stroke="#5341ff" stroke-width="8" stroke-linecap="round"/><path d="M0 311h0c109.653 7.2 219.305 14.4 327 15 107.695.6 213.432-5.397 323-7 109.568-1.603 222.967 1.19 339 3 116.033 1.81 234.7 2.64 349-1 114.3-3.64 224.235-11.75 347-13 122.765-1.25 258.362 4.357 313 6 54.638 1.643 28.32-.678 42-3" fill="none" stroke="#6d5dff" stroke-width="8" stroke-linecap="round"/><path d="M0 466h0c103.826-11.042 207.653-22.083 318-23 110.347-.917 227.215 8.291 342 17s227.487 16.92 344 14c116.513-2.92 236.839-16.968 339-16s186.159 16.953 307 22c120.841 5.047 278.526-.844 343-5 64.474-4.156 35.737-6.578 47-9" fill="none" stroke="#d0cbff" stroke-width="8" stroke-linecap="round"/><path d="M0 622h0c123.334 4.817 246.669 9.634 351 13 104.331 3.366 189.659 5.282 298 1 108.341-4.282 239.696-14.76 364-13 124.304 1.76 241.556 15.76 340 14 98.444-1.76 178.081-19.282 304-19 125.919.282 298.12 18.366 363 22 64.88 3.634 22.44-7.183 20-18" fill="none" stroke="#6d5dff" stroke-width="8" stroke-linecap="round"/><path d="M0 777h0c106.303-10.5 212.606-21.002 319-21 106.394.002 212.877 10.506 335 19 122.123 8.494 259.884 14.978 367 20 107.116 5.022 183.588 8.583 290 4s242.765-17.31 378-24c135.235-6.69 269.353-7.34 321-6 51.647 1.34 20.824 4.67 30 8" fill="none" stroke="#bcb5ff" stroke-width="8" stroke-linecap="round"/><path d="M0 933h0c117.752-4.807 235.503-9.613 345-3 109.497 6.613 210.74 24.646 315 25 104.26.354 211.54-16.971 323-23 111.46-6.029 227.103-.76 335-5 107.897-4.24 208.05-17.988 340-12 131.95 5.988 295.7 31.71 358 38 62.3 6.29 23.15-6.855 24-20" fill="none" stroke="#7e70fe" stroke-width="8" stroke-linecap="round"/><path d="M0 1088h0c107.769 6.322 215.537 12.644 329 13 113.463.356 232.62-5.256 344-14s214.986-20.622 325-18c110.014 2.622 226.437 19.744 341 20 114.563.256 227.267-16.354 352-17 124.733-.646 261.495 14.673 315 20 53.505 5.327 23.752.664 34-4" fill="none" stroke="#3620ff" stroke-width="8" stroke-linecap="round"/><path d="M0 1244h0c120.937 13.61 241.873 27.22 355 23 113.127-4.22 218.443-26.268 330-29 111.557-2.732 229.354 13.854 339 23 109.646 9.146 211.142 10.854 314 4 102.858-6.854 207.077-22.268 333-22 125.923.268 273.55 16.22 332 19 58.45 2.78 27.725-7.61 37-18" fill="none" stroke="#9084ff" stroke-width="8" stroke-linecap="round"/></svg>